<svg id="ic_weather4" xmlns="http://www.w3.org/2000/svg" width="136.288" height="136.288" viewBox="0 0 136.288 136.288">
  <g id="Group_5215" data-name="Group 5215" transform="translate(55.641 12.015)">
    <path id="Path_58065" data-name="Path 58065" d="M959.788,609.523a23.271,23.271,0,0,0-19.9,11.184A20.875,20.875,0,0,1,945,633.589a16.751,16.751,0,0,1,26.792,14.954,9.861,9.861,0,0,1,7.255-2.6,23.3,23.3,0,0,0-19.259-36.419Z" transform="translate(-929.721 -591.062)" fill="#ffbf00"/>
    <path id="Path_58066" data-name="Path 58066" d="M965.585,599.242a1.83,1.83,0,0,0,1.829-1.829V586.969a1.828,1.828,0,0,0-3.656,0v10.444A1.83,1.83,0,0,0,965.585,599.242Z" transform="translate(-935.517 -585.141)" fill="#ffbf00"/>
    <path id="Path_58067" data-name="Path 58067" d="M948.454,603.133a1.812,1.812,0,0,0,.989.989,1.828,1.828,0,0,0,2.388-2.39l-1.66-4a1.828,1.828,0,1,0-3.378,1.4Z" transform="translate(-931.364 -587.924)" fill="#ffbf00"/>
    <path id="Path_58068" data-name="Path 58068" d="M1006.278,654.591l-4-1.655a1.828,1.828,0,0,0-1.4,3.379l4,1.654a1.828,1.828,0,1,0,1.4-3.378Z" transform="translate(-944.258 -601.571)" fill="#ffbf00"/>
    <path id="Path_58069" data-name="Path 58069" d="M1000.878,625.963a1.812,1.812,0,0,0,1.4,0l4-1.66a1.828,1.828,0,1,0-1.4-3.377l-4,1.66a1.828,1.828,0,0,0,0,3.378Z" transform="translate(-944.257 -593.797)" fill="#ffbf00"/>
    <path id="Path_58070" data-name="Path 58070" d="M979.793,604.121a1.828,1.828,0,0,0,2.39-.988l1.66-4a1.828,1.828,0,0,0-3.376-1.4l-1.66,4a1.828,1.828,0,0,0,.987,2.39Z" transform="translate(-939.137 -587.924)" fill="#ffbf00"/>
    <path id="Path_58071" data-name="Path 58071" d="M936.966,608.516l-7.386-7.386a1.872,1.872,0,0,0-2.586,0,1.832,1.832,0,0,0,0,2.585l7.386,7.386a1.828,1.828,0,0,0,2.586-2.585Z" transform="translate(-926.46 -588.898)" fill="#ffbf00"/>
    <path id="Path_58072" data-name="Path 58072" d="M1014.982,637.888h-10.444a1.828,1.828,0,0,0,0,3.656h10.444a1.828,1.828,0,1,0,0-3.656Z" transform="translate(-944.977 -597.95)" fill="#ffbf00"/>
    <path id="Path_58073" data-name="Path 58073" d="M993.129,611.636a1.814,1.814,0,0,0,1.292-.535l7.386-7.386a1.828,1.828,0,0,0,0-2.585,1.872,1.872,0,0,0-2.585,0l-7.386,7.386a1.828,1.828,0,0,0,1.292,3.12Z" transform="translate(-942.206 -588.898)" fill="#ffbf00"/>
  </g>
  <path id="Path_58074" data-name="Path 58074" d="M971.588,657.4A10.191,10.191,0,0,1,961.4,667.584H883.638a14.517,14.517,0,1,1,2.505-28.815,20.956,20.956,0,1,1,41.67-3.91,16.751,16.751,0,0,1,26.793,14.954A10.2,10.2,0,0,1,971.588,657.4Z" transform="translate(-856.894 -580.318)" fill="#aaa"/>
  <path id="Path_58075" data-name="Path 58075" d="M925.452,692.462l-8.656,8.392a8.4,8.4,0,0,0-2.589,7.1,5.694,5.694,0,0,0,9.447,3.566,8.4,8.4,0,0,0,2.747-7.037Z" transform="translate(-867.827 -599.188)" fill="#ade0f3"/>
  <path id="Path_58076" data-name="Path 58076" d="M957.041,692.345l-7.374,7.251a7.205,7.205,0,0,0-2.178,6.1,4.885,4.885,0,0,0,8.124,3,7.205,7.205,0,0,0,2.314-6.053Z" transform="translate(-875.91 -599.16)" fill="#ade0f3"/>
  <path id="Path_58077" data-name="Path 58077" d="M938.305,718.855l-4.641,4.5a4.5,4.5,0,0,0-1.388,3.8,3.053,3.053,0,0,0,5.065,1.913,4.506,4.506,0,0,0,1.473-3.773Z" transform="translate(-872.223 -605.597)" fill="#ade0f3"/>
  <path id="Path_58078" data-name="Path 58078" d="M979.2,694.744l-4.641,4.5a4.506,4.506,0,0,0-1.388,3.805,3.054,3.054,0,0,0,5.065,1.913,4.5,4.5,0,0,0,1.473-3.774Z" transform="translate(-882.153 -599.742)" fill="#ade0f3"/>
  <path id="Path_58079" data-name="Path 58079" d="M899.868,706.511l-6,5.816a5.821,5.821,0,0,0-1.794,4.917,3.946,3.946,0,0,0,6.546,2.471,5.819,5.819,0,0,0,1.9-4.876Z" transform="translate(-862.458 -602.6)" fill="#ade0f3"/>
  <rect id="Rectangle_2106" data-name="Rectangle 2106" width="136.288" height="136.288" fill="none"/>
</svg>
