<svg id="ic_weather5" xmlns="http://www.w3.org/2000/svg" width="136.288" height="136.288" viewBox="0 0 136.288 136.288">
  <path id="Path_58086" data-name="Path 58086" d="M1167.5,587.972l-4.927,4.844a4.814,4.814,0,0,0-1.455,4.077,3.264,3.264,0,0,0,5.428,2.007,4.814,4.814,0,0,0,1.546-4.044Z" transform="translate(-1096.444 -573.813)" fill="#ade0f3"/>
  <path id="Path_58087" data-name="Path 58087" d="M1126.017,587.972l-4.927,4.844a4.811,4.811,0,0,0-1.455,4.077,3.264,3.264,0,0,0,5.428,2.007,4.815,4.815,0,0,0,1.546-4.044Z" transform="translate(-1086.371 -573.813)" fill="#ade0f3"/>
  <path id="Path_58088" data-name="Path 58088" d="M1139.477,600.164l-8.051,7.484a7.657,7.657,0,0,0-2.495,6.419,5.191,5.191,0,0,0,8.542,3.432,7.657,7.657,0,0,0,2.639-6.362Z" transform="translate(-1088.629 -576.774)" fill="#ade0f3"/>
  <path id="Path_58089" data-name="Path 58089" d="M1212.267,607.428l-6.122,6.019a5.982,5.982,0,0,0-1.808,5.065,4.055,4.055,0,0,0,6.745,2.493,5.98,5.98,0,0,0,1.921-5.024Z" transform="translate(-1106.938 -578.538)" fill="#ade0f3"/>
  <path id="Path_58090" data-name="Path 58090" d="M1187.783,593.163l-7.889,7.756a7.709,7.709,0,0,0-2.33,6.529,5.226,5.226,0,0,0,8.692,3.212,7.712,7.712,0,0,0,2.475-6.475Z" transform="translate(-1100.433 -575.074)" fill="#ade0f3"/>
  <rect id="Rectangle_2108" data-name="Rectangle 2108" width="136.288" height="136.288" fill="none"/>
  <g id="Group_5218" data-name="Group 5218" transform="translate(22.168 40.203)">
    <rect id="Rectangle_2109" data-name="Rectangle 2109" width="2.47" height="4.482" rx="1.235" transform="translate(44.511)" fill="#aaa"/>
    <path id="Path_58091" data-name="Path 58091" d="M1179.208,701.483a1.735,1.735,0,0,0-1.261-.516,1.754,1.754,0,0,0-1.808,1.674,4.773,4.773,0,0,1-9.539.041V641.671a1.748,1.748,0,0,0-3.494,0l0,60.95,0,.037,0,.048a8.4,8.4,0,0,0,8.229,8.231c.134.007.266.011.4.011h0c4.6,0,7.681-4.278,7.895-8.242A1.6,1.6,0,0,0,1179.208,701.483Z" transform="translate(-1119.106 -626.641)" fill="#aaa"/>
    <path id="Path_58092" data-name="Path 58092" d="M1113.939,662.348a10.423,10.423,0,0,1,9.306,5.5,10.424,10.424,0,0,1,18.486-.21,10.426,10.426,0,0,1,18.487-.21,10.425,10.425,0,0,1,18.487-.209,10.424,10.424,0,0,1,18.241-.641,46.278,46.278,0,0,0-91.952,1.042A10.418,10.418,0,0,1,1113.939,662.348Z" transform="translate(-1104.995 -623.269)" fill="#5899e0"/>
    <path id="Path_58093" data-name="Path 58093" d="M1165.412,626.078h0s14.2,9.447,9.479,41.351a9.97,9.97,0,0,1,9.009-5.5,10.521,10.521,0,0,1,9.477,5.289S1195.282,630.214,1165.412,626.078Z" transform="translate(-1119.667 -623.27)" fill="#aac5e2"/>
    <path id="Path_58094" data-name="Path 58094" d="M1156.814,626.232c-29.868,4.136-27.726,41.654-27.726,41.654,1.79-3.334,5.756-5.758,9.059-5.708a10.74,10.74,0,0,1,9.422,5.511C1142.852,635.785,1156.814,626.232,1156.814,626.232Z" transform="translate(-1110.838 -623.307)" fill="#aac5e2"/>
  </g>
</svg>
