<svg xmlns="http://www.w3.org/2000/svg" width="136" height="136" viewBox="0 0 136 136">
  <g id="ic_weather1" transform="translate(0 0)">
    <g id="Group_5208" data-name="Group 5208" transform="translate(13.269 14.973)">
      <circle id="Ellipse_433" data-name="Ellipse 433" cx="28.312" cy="28.312" r="28.312" transform="translate(16.509 46.278) rotate(-31.717)" fill="#ffbf00"/>
      <path id="Path_58035" data-name="Path 58035" d="M240.761,608.792a1.647,1.647,0,0,0,1.645-1.645V590.693a1.645,1.645,0,1,0-3.29,0v16.453A1.647,1.647,0,0,0,240.761,608.792Z" transform="translate(-185.284 -589.048)" fill="#ffbf00"/>
      <path id="Path_58036" data-name="Path 58036" d="M219.339,614.374h0a1.645,1.645,0,0,0,3.039-1.26l-3.148-7.6a1.645,1.645,0,0,0-3.039,1.259Z" transform="translate(-179.686 -592.8)" fill="#ffbf00"/>
      <path id="Path_58037" data-name="Path 58037" d="M184.483,640.26l7.6,3.148a1.645,1.645,0,1,0,1.26-3.038l-7.6-3.148a1.645,1.645,0,1,0-1.26,3.038Z" transform="translate(-171.77 -600.716)" fill="#ffbf00"/>
      <path id="Path_58038" data-name="Path 58038" d="M194.233,680.053a1.646,1.646,0,0,0-2.15-.89l-7.6,3.148a1.644,1.644,0,0,0-.89,2.149h0a1.645,1.645,0,0,0,2.149.89l7.6-3.149A1.647,1.647,0,0,0,194.233,680.053Z" transform="translate(-171.77 -610.901)" fill="#ffbf00"/>
      <path id="Path_58039" data-name="Path 58039" d="M221.488,705.882a1.646,1.646,0,0,0-2.15.889l-3.148,7.6a1.645,1.645,0,0,0,3.039,1.26l3.147-7.6a1.645,1.645,0,0,0-.89-2.149Z" transform="translate(-179.686 -617.39)" fill="#ffbf00"/>
      <path id="Path_58040" data-name="Path 58040" d="M261.172,706.771a1.645,1.645,0,0,0-3.04,1.26l3.149,7.6a1.645,1.645,0,0,0,3.039-1.259Z" transform="translate(-189.871 -617.39)" fill="#ffbf00"/>
      <path id="Path_58041" data-name="Path 58041" d="M294.6,682.312l-7.6-3.148a1.645,1.645,0,1,0-1.26,3.039l7.6,3.148a1.645,1.645,0,1,0,1.26-3.038Z" transform="translate(-196.359 -610.901)" fill="#ffbf00"/>
      <path id="Path_58042" data-name="Path 58042" d="M284.85,641.26a1.639,1.639,0,0,0,0,1.259h0a1.645,1.645,0,0,0,2.149.89l7.6-3.149a1.645,1.645,0,0,0-1.26-3.038l-7.6,3.148A1.636,1.636,0,0,0,284.85,641.26Z" transform="translate(-196.359 -600.716)" fill="#ffbf00"/>
      <path id="Path_58043" data-name="Path 58043" d="M259.023,615.263a1.645,1.645,0,0,0,2.149-.89l3.147-7.6a1.645,1.645,0,1,0-3.038-1.26l-3.149,7.6A1.648,1.648,0,0,0,259.023,615.263Z" transform="translate(-189.871 -592.8)" fill="#ffbf00"/>
      <path id="Path_58044" data-name="Path 58044" d="M200.958,624.319h0a1.645,1.645,0,1,0,2.326-2.326L191.65,610.359a1.684,1.684,0,0,0-2.326,0,1.645,1.645,0,0,0,0,2.326Z" transform="translate(-173.075 -594.11)" fill="#ffbf00"/>
      <path id="Path_58045" data-name="Path 58045" d="M187.761,661.791a1.647,1.647,0,0,0-1.645-1.645H169.663a1.645,1.645,0,0,0,0,3.29h16.454A1.646,1.646,0,0,0,187.761,661.791Z" transform="translate(-168.018 -606.314)" fill="#ffbf00"/>
      <path id="Path_58046" data-name="Path 58046" d="M200.958,695.541l-11.634,11.635a1.645,1.645,0,1,0,2.326,2.326l11.634-11.634a1.642,1.642,0,0,0,0-2.325A1.684,1.684,0,0,0,200.958,695.541Z" transform="translate(-173.075 -614.796)" fill="#ffbf00"/>
      <path id="Path_58047" data-name="Path 58047" d="M240.761,709.513a1.647,1.647,0,0,0-1.645,1.645v16.453a1.645,1.645,0,1,0,3.29,0V711.158A1.647,1.647,0,0,0,240.761,709.513Z" transform="translate(-185.284 -618.302)" fill="#ffbf00"/>
      <path id="Path_58048" data-name="Path 58048" d="M276.832,695.541a1.684,1.684,0,0,0-2.326,0,1.645,1.645,0,0,0,0,2.326L286.14,709.5a1.645,1.645,0,0,0,2.326-2.326Z" transform="translate(-193.761 -614.796)" fill="#ffbf00"/>
      <path id="Path_58049" data-name="Path 58049" d="M306.581,660.146H290.128a1.645,1.645,0,0,0,0,3.29h16.454a1.645,1.645,0,0,0,0-3.29Z" transform="translate(-197.272 -606.314)" fill="#ffbf00"/>
      <path id="Path_58050" data-name="Path 58050" d="M275.669,624.8a1.633,1.633,0,0,0,1.163-.482l11.634-11.635a1.645,1.645,0,0,0,0-2.326,1.684,1.684,0,0,0-2.326,0l-11.634,11.634a1.645,1.645,0,0,0,1.163,2.808Z" transform="translate(-193.761 -594.11)" fill="#ffbf00"/>
    </g>
    <rect id="Rectangle_2103" data-name="Rectangle 2103" width="136" height="136" transform="translate(0 0)" fill="none"/>
  </g>
</svg>
