<svg id="ic_weather2" xmlns="http://www.w3.org/2000/svg" width="136.288" height="136.288" viewBox="0 0 136.288 136.288">
  <g id="Group_5212" data-name="Group 5212" transform="translate(11.947 22.319)">
    <g id="Group_5210" data-name="Group 5210" transform="translate(29.441)">
      <path id="Path_58051" data-name="Path 58051" d="M474.986,625.549a25.932,25.932,0,0,0-25.28,20.14A17.415,17.415,0,0,1,463.463,662.3a12.91,12.91,0,0,1,18.653,13.6,8.925,8.925,0,0,1,5.121-1.556,25.934,25.934,0,0,0-12.251-48.792Z" transform="translate(-438.424 -605.258)" fill="#ffbf00"/>
      <path id="Path_58052" data-name="Path 58052" d="M482.523,613.933a1.782,1.782,0,0,0,1.78-1.779V600.531a1.78,1.78,0,1,0-3.561,0v11.623A1.782,1.782,0,0,0,482.523,613.933Z" transform="translate(-445.961 -598.75)" fill="#ffbf00"/>
      <path id="Path_58053" data-name="Path 58053" d="M463.694,618.42a1.78,1.78,0,1,0,3.288-1.364l-1.847-4.454a1.78,1.78,0,0,0-3.288,1.364Z" transform="translate(-441.339 -601.847)" fill="#ffbf00"/>
      <path id="Path_58054" data-name="Path 58054" d="M441.723,640.4l-4.455-1.848a1.779,1.779,0,1,0-1.364,3.287l4.456,1.848a1.779,1.779,0,1,0,1.363-3.287Z" transform="translate(-434.805 -608.383)" fill="#ffbf00"/>
      <path id="Path_58055" data-name="Path 58055" d="M527.71,676.016l-4.455-1.841a1.777,1.777,0,0,0-2.325.964,1.784,1.784,0,0,0,.965,2.326l4.454,1.841a1.781,1.781,0,0,0,1.361-3.291Z" transform="translate(-455.687 -617.033)" fill="#ffbf00"/>
      <path id="Path_58056" data-name="Path 58056" d="M520.93,641.364a1.777,1.777,0,0,0,2.326,2.324l4.454-1.847a1.779,1.779,0,1,0-1.363-3.288l-4.455,1.847A1.762,1.762,0,0,0,520.93,641.364Z" transform="translate(-455.687 -608.382)" fill="#ffbf00"/>
      <path id="Path_58057" data-name="Path 58057" d="M498.431,619.384a1.774,1.774,0,0,0,1.364,0,1.762,1.762,0,0,0,.962-.963l1.848-4.454a1.779,1.779,0,1,0-3.287-1.364l-1.848,4.454a1.781,1.781,0,0,0,.962,2.328Z" transform="translate(-449.99 -601.847)" fill="#ffbf00"/>
      <path id="Path_58058" data-name="Path 58058" d="M447.977,627.2a1.78,1.78,0,1,0,2.517-2.517l-8.219-8.22a1.822,1.822,0,0,0-2.517,0,1.779,1.779,0,0,0,0,2.518Z" transform="translate(-435.881 -602.93)" fill="#ffbf00"/>
      <path id="Path_58059" data-name="Path 58059" d="M514.524,688.714a1.781,1.781,0,1,0-2.608,2.424l8.219,8.213a1.767,1.767,0,0,0,1.259.522h0a1.781,1.781,0,0,0,1.258-3.039Z" transform="translate(-453.404 -620.447)" fill="#ffbf00"/>
      <path id="Path_58060" data-name="Path 58060" d="M537.492,657.449H525.87a1.78,1.78,0,0,0,0,3.56h11.622a1.78,1.78,0,1,0,0-3.56Z" transform="translate(-456.487 -613.005)" fill="#ffbf00"/>
      <path id="Path_58061" data-name="Path 58061" d="M513.174,627.727a1.764,1.764,0,0,0,1.258-.522l8.22-8.219a1.779,1.779,0,0,0,0-2.518,1.823,1.823,0,0,0-2.518,0l-8.219,8.22a1.781,1.781,0,0,0,1.258,3.039Z" transform="translate(-453.404 -602.93)" fill="#ffbf00"/>
    </g>
    <g id="Group_5211" data-name="Group 5211" transform="translate(0 40.045)">
      <path id="Path_58062" data-name="Path 58062" d="M469.055,682.233a12.91,12.91,0,0,0-18.653-13.6,17.416,17.416,0,1,0-34.806,1.264,14.778,14.778,0,1,0-4.9,28.721h63.408a8.971,8.971,0,1,0-5.053-16.383Z" transform="translate(-395.922 -651.639)" fill="#9cf"/>
    </g>
  </g>
  <rect id="Rectangle_2104" data-name="Rectangle 2104" width="136.288" height="136.288" fill="none"/>
</svg>
