<svg id="ic_weather3" xmlns="http://www.w3.org/2000/svg" width="136.288" height="136.288" viewBox="0 0 136.288 136.288">
  <path id="Path_58063" data-name="Path 58063" d="M694.893,631.152A23.3,23.3,0,0,1,716.77,651.2a14.984,14.984,0,0,1,23.794,3.16c.019.03.037.067.056.1,10.569,0,10.209.006,10.209.006a12.148,12.148,0,1,0-2.1-24.115,17.536,17.536,0,1,0-34.713-5A11.271,11.271,0,0,0,694.893,631.152Z" transform="translate(-638.174 -579.224)" fill="#aaa"/>
  <path id="Path_58064" data-name="Path 58064" d="M637.809,680.442A16.16,16.16,0,0,0,653.967,696.6c.243,0-5.184-.006,82.077-.006a13.42,13.42,0,1,0-7.921-24.5,14.975,14.975,0,0,0-25.216-14.209,23.317,23.317,0,1,0-46.159,6.64A16.16,16.16,0,0,0,637.809,680.442Z" transform="translate(-624.312 -585.917)" fill="#9cf"/>
  <rect id="Rectangle_2105" data-name="Rectangle 2105" width="136.288" height="136.288" fill="none"/>
</svg>
