<svg id="ic_weather6" xmlns="http://www.w3.org/2000/svg" width="136.288" height="136.288" viewBox="0 0 136.288 136.288">
  <path id="Path_58080" data-name="Path 58080" d="M1321.664,640.865a15.18,15.18,0,0,0,15.178,15.184c.229,0-4.87-.006,77.1-.006a12.607,12.607,0,1,0-7.441-23.014,14.068,14.068,0,0,0-23.688-13.348,21.9,21.9,0,1,0-43.361,6.239A15.18,15.18,0,0,0,1321.664,640.865Z" transform="translate(-1304.095 -576.934)" fill="#aaa"/>
  <path id="Path_58081" data-name="Path 58081" d="M1349.616,683.534,1342,691.025a7.444,7.444,0,0,0-2.25,6.3,5.047,5.047,0,0,0,8.395,3.1,7.442,7.442,0,0,0,2.39-6.253Z" transform="translate(-1308.47 -597.02)" fill="#ade0f3"/>
  <path id="Path_58082" data-name="Path 58082" d="M1361.157,710.9l-4.085,4.017a3.994,3.994,0,0,0-1.207,3.381,2.706,2.706,0,0,0,4.5,1.664,3.99,3.99,0,0,0,1.282-3.353Z" transform="translate(-1312.391 -603.665)" fill="#ade0f3"/>
  <path id="Path_58083" data-name="Path 58083" d="M1370.177,684.627l-4.086,4.017a3.992,3.992,0,0,0-1.207,3.381,2.707,2.707,0,0,0,4.5,1.663,3.99,3.99,0,0,0,1.282-3.353Z" transform="translate(-1314.582 -597.285)" fill="#ade0f3"/>
  <path id="Path_58084" data-name="Path 58084" d="M1383.446,695.863l-6.5,6.39a6.351,6.351,0,0,0-1.919,5.379,4.3,4.3,0,0,0,7.16,2.646,6.349,6.349,0,0,0,2.039-5.333Z" transform="translate(-1317.04 -600.014)" fill="#ade0f3"/>
  <path id="Path_58085" data-name="Path 58085" d="M1426.671,672.237h-20.928l10.612-18.865h-18.217l-7.427,27.079h16.212l-6.485,24.505Z" transform="translate(-1320.862 -589.695)" fill="#ffbf00"/>
  <rect id="Rectangle_2107" data-name="Rectangle 2107" width="136.288" height="136.288" fill="none"/>
</svg>
